<svg version="1.1" xmlns="http://www.w3.org/2000/svg" xmlns:xlink="http://www.w3.org/1999/xlink" width="721.04194" height="538.05068" viewBox="0,0,721.04194,538.05068"><g transform="translate(118.05068,89.02534)"><g data-paper-data="{&quot;isPaintingLayer&quot;:true}" fill-rule="nonzero" stroke="none" stroke-linecap="butt" stroke-linejoin="miter" stroke-miterlimit="10" stroke-dasharray="" stroke-dashoffset="0" style="mix-blend-mode: normal"><path d="M-118.05068,449.02534v-538.05068h721.04194v538.05068z" fill="#000000" stroke-width="0"/><path d="M201.43841,110.58969v46.27354c0,4.25902 3.45386,7.71195 7.71287,7.71195h61.69743c4.25902,0 7.71287,-3.45293 7.71287,-7.71195v-46.27354h11.56838l19.28033,19.28033v104.11546c0,8.51896 -6.90586,15.42482 -15.42482,15.42482h-107.97097c-8.51896,0 -15.42482,-6.90586 -15.42482,-15.42482v-107.97097c0,-8.51896 6.90586,-15.42482 15.42482,-15.42482zM263.13677,118.30164v38.56159h-23.13677v-38.56159zM201.43841,180c-4.25902,0 -7.71195,3.45293 -7.71195,7.71195v46.27354h92.54708v-46.27354c0,-4.25902 -3.45293,-7.71195 -7.71195,-7.71195h-77.12318" fill="#0abf00" stroke-width="1"/><text transform="translate(179.1253,74.20804) scale(0.5,0.5)" font-size="40" xml:space="preserve" fill="#0abf00" fill-rule="nonzero" stroke="none" stroke-width="1" stroke-linecap="butt" stroke-linejoin="miter" stroke-miterlimit="10" stroke-dasharray="" stroke-dashoffset="0" font-family="Sans Serif" font-weight="normal" text-anchor="start" style="mix-blend-mode: normal"><tspan x="0" dy="0">Insert ROM...</tspan></text><path d="M15.34113,-31.9883v-0.97466h4.87329v0.97466z" fill="#000000" stroke-width="0"/></g></g></svg>